<svg id="Blanja_-_Ecomerce_Illustration_Kit" data-name="Blanja - Ecomerce Illustration Kit" xmlns="http://www.w3.org/2000/svg" viewBox="0 0 600 336"><defs><style>.cls-1{fill:#efede4;}.cls-2,.cls-3{fill:#0a0910;}.cls-10,.cls-11,.cls-12,.cls-13,.cls-14,.cls-17,.cls-18,.cls-19,.cls-21,.cls-22,.cls-23,.cls-24,.cls-25,.cls-26,.cls-27,.cls-28,.cls-29,.cls-3,.cls-30,.cls-31,.cls-33,.cls-34,.cls-35,.cls-37,.cls-38,.cls-39,.cls-40,.cls-41,.cls-42,.cls-43,.cls-44,.cls-6,.cls-9{fill-rule:evenodd;}.cls-39,.cls-4,.cls-9{fill:#fff;}.cls-5{fill:#f65fa8;}.cls-6{fill:#f881bd;}.cls-7{fill:#dc0149;}.cls-8{fill:#f42079;}.cls-9{opacity:0.5;}.cls-10{fill:#110e0f;}.cls-11{fill:#820001;}.cls-12{fill:#eb0700;}.cls-13{fill:#090b12;}.cls-14{fill:#07103d;}.cls-15{fill:#f76501;}.cls-16{fill:#f0b203;}.cls-17,.cls-18,.cls-19,.cls-20,.cls-21,.cls-25,.cls-40,.cls-41,.cls-42,.cls-43{fill:none;}.cls-17{stroke:#ffa100;}.cls-17,.cls-18,.cls-19,.cls-40,.cls-41,.cls-42,.cls-43{stroke-linecap:round;stroke-linejoin:round;}.cls-17,.cls-18,.cls-19{stroke-width:2.13px;}.cls-18{stroke:#242f92;}.cls-19{stroke:#f00000;}.cls-20,.cls-21,.cls-40,.cls-41,.cls-42,.cls-43{stroke:#0a0910;}.cls-20,.cls-21,.cls-25{stroke-miterlimit:22.93;}.cls-20,.cls-21,.cls-40{stroke-width:1.42px;}.cls-22{fill:#7d2a03;}.cls-23{fill:#d70034;}.cls-24{fill:#fc141c;}.cls-25{stroke:#0b0817;stroke-width:1.01px;}.cls-26{fill:#999;}.cls-27{fill:#3c3636;}.cls-28,.cls-32{fill:#ffb30d;}.cls-29{fill:#e39804;}.cls-30{fill:#f9cf3d;}.cls-31{fill:#f9e662;}.cls-33{fill:#99d9e8;}.cls-34{fill:#3a82ba;}.cls-35{fill:#6fb3d4;}.cls-36{fill:#eebb90;}.cls-37{fill:#ff1500;}.cls-38{fill:#141028;}.cls-41{stroke-width:1.42px;}.cls-42{stroke-width:3.4px;}.cls-43{stroke-width:3.4px;}.cls-44{fill:#ffa100;}</style></defs><title>Belanja - E-comerce Illustrstion Kit</title><g id="Shoping"><rect class="cls-1" x="-0.17" y="0.36" width="600" height="336"/><rect class="cls-2" x="83.83" y="321.03" width="432" height="2.52" rx="1.26" ry="1.26"/><path class="cls-3" d="M368.74,105.78c6.76,6,5.87,15.25,5.54,22.65-1.93.16-4.72-.33-8.72,6.88,3.23-5.35-5.11-2.81-3.58-16l-15.12-3.2-.3-3.63-3.35,2.86-4.43-.94.18-2.26-2.1,1.78L331,112.71c2.61-9.16,15.13-15.62,29.39-11.32C355.38,65.2,402.16,98.4,368.74,105.78Z"/><path class="cls-3" d="M390.27,168.35l-6.17,0-3.4-3.63-.87,3.65h-2.09l-1.07-1.55-.92,1.56-3.9,0-1.22-15.21a6.53,6.53,0,0,1-.72,0l-.39-4.39a10.76,10.76,0,0,0,5.45-2.33C376.45,153.84,392.15,157.4,390.27,168.35Z"/><rect class="cls-4" x="455.28" y="148.66" width="60" height="60" rx="2.4" ry="2.4"/><rect class="cls-4" x="105.82" y="220.64" width="69.65" height="69.65" rx="2.79" ry="2.79"/><rect class="cls-5" x="470.55" y="168.88" width="15.17" height="30.53" rx="3.56" ry="3.56"/><path class="cls-6" d="M476.7,168.88h5.46a3.6,3.6,0,0,1,3.56,3.43V196a3.6,3.6,0,0,1-3.56,3.43H476.7c-2,0-3.56-2.49-3.56-4.25v-22C473.14,171.38,474.74,168.88,476.7,168.88Z"/><rect class="cls-7" x="470.55" y="176.53" width="15.17" height="16.58"/><rect class="cls-8" x="473.09" y="176.53" width="12.63" height="16.58"/><path class="cls-9" d="M483.74,173.59h0a1.25,1.25,0,0,0-1.31,1.16v16.89a1.25,1.25,0,0,0,1.31,1.16h0a1.25,1.25,0,0,0,1.31-1.16V174.76a1.25,1.25,0,0,0-1.31-1.16Zm0,19.93h0a1.25,1.25,0,0,0-1.31,1.16v.24a1.25,1.25,0,0,0,1.31,1.16h0a1.25,1.25,0,0,0,1.31-1.16v-.24A1.25,1.25,0,0,0,483.74,193.53Z"/><path class="cls-10" d="M485.8,158.15h0a1.23,1.23,0,0,1,1.59.72l8.21,21.81a1.23,1.23,0,0,1-.72,1.59h0a1.23,1.23,0,0,1-1.59-.72l-8.21-21.81A1.23,1.23,0,0,1,485.8,158.15Z"/><path class="cls-10" d="M483.32,161.68l.19-.07-.05-.11h0c-.08-.22,0-.45.08-.5l5.66-2.13c.13,0,.3.1.39.32h0a.77.77,0,0,1,0,.11l.19-.07c.13,0,.3.1.39.32h0c.08.22,0,.45-.08.5l-.19.07.05.11h0c.08.22,0,.45-.08.5l-5.66,2.13c-.13,0-.3-.1-.39-.32h0a.72.72,0,0,1,0-.11l-.19.07c-.13,0-.3-.1-.39-.32h0C483.15,161.95,483.19,161.72,483.32,161.68Z"/><rect class="cls-5" x="489.58" y="179.94" width="15.17" height="16.76" rx="3.56" ry="3.56" transform="translate(-34.47 187.28) rotate(-20.63)"/><path class="cls-6" d="M492.87,181l5.11-1.92a3.59,3.59,0,0,1,4.53,1.93l3.51,9.31a3.59,3.59,0,0,1-2.13,4.44l-5.11,1.92a3.56,3.56,0,0,1-4.52-1.91l-3.52-9.34A3.58,3.58,0,0,1,492.87,181Z"/><rect class="cls-7" x="489.78" y="187.37" width="15.17" height="2.99" transform="translate(-34.65 187.38) rotate(-20.63)"/><rect class="cls-8" x="492.24" y="186.92" width="12.63" height="2.99" transform="translate(-34.42 187.76) rotate(-20.63)"/><path class="cls-9" d="M500.17,180.4h0a1.25,1.25,0,0,0-.82,1.55l2.41,6.39a1.25,1.25,0,0,0,1.64.63h0a1.25,1.25,0,0,0,.82-1.55L501.81,181a1.25,1.25,0,0,0-1.64-.63Zm3.48,9.24h0a1.25,1.25,0,0,0-.82,1.55l.08.22a1.25,1.25,0,0,0,1.64.63h0a1.25,1.25,0,0,0,.82-1.55l-.08-.22A1.25,1.25,0,0,0,503.65,189.64Z"/><path class="cls-10" d="M482.94,165l.28-.1a.52.52,0,0,1-.05-.11h0a.4.4,0,0,1,.18-.53l8.13-3.06a.4.4,0,0,1,.49.28h0a.52.52,0,0,1,0,.12l.28-.1a.4.4,0,0,1,.49.28h0a.4.4,0,0,1-.18.53l-.28.1a.53.53,0,0,1,.05.11h0a.4.4,0,0,1-.18.53L484,166.09a.4.4,0,0,1-.49-.28h0a.51.51,0,0,1,0-.12l-.28.1a.4.4,0,0,1-.49-.28h0A.4.4,0,0,1,482.94,165Z"/><path class="cls-10" d="M483,168.13l.34-.13a.42.42,0,0,1-.06-.11h0a.44.44,0,0,1,.25-.56l9.89-3.72a.44.44,0,0,1,.56.25h0a.44.44,0,0,1,0,.12l.34-.13a.44.44,0,0,1,.56.25h0a.44.44,0,0,1-.25.56l-.34.13a.43.43,0,0,1,.06.11h0a.44.44,0,0,1-.25.56l-9.89,3.72a.44.44,0,0,1-.56-.25h0a.44.44,0,0,1,0-.12l-.33.13a.44.44,0,0,1-.56-.25h0A.44.44,0,0,1,483,168.13Z"/><path class="cls-10" d="M485,170.52l.28-.1a.53.53,0,0,1-.05-.11h0a.4.4,0,0,1,.18-.53l8.13-3.06a.4.4,0,0,1,.49.28h0a.52.52,0,0,1,0,.12l.28-.1a.4.4,0,0,1,.49.28h0a.4.4,0,0,1-.18.53l-.28.1a.51.51,0,0,1,.05.11h0a.4.4,0,0,1-.18.53l-8.13,3.06a.4.4,0,0,1-.49-.28h0a.51.51,0,0,1,0-.12l-.28.1a.4.4,0,0,1-.49-.28h0A.4.4,0,0,1,485,170.52Z"/><path class="cls-10" d="M487.49,172.76l.19-.07-.05-.11h0c-.08-.22,0-.45.08-.5l5.66-2.13c.13,0,.3.1.39.32h0a.77.77,0,0,1,0,.11l.19-.07c.13,0,.3.1.39.32h0c.08.22,0,.45-.08.5l-.19.07.05.11h0c.08.22,0,.45-.08.5l-5.66,2.13c-.13,0-.3-.1-.39-.32h0a.72.72,0,0,1,0-.11l-.19.07c-.13,0-.3-.1-.39-.32h0C487.33,173,487.36,172.81,487.49,172.76Z"/><path class="cls-11" d="M129.63,235.36l6.34,2.86c.27.12.53.24.53.53v11.1a.53.53,0,0,1-.53.53h-6.34a.53.53,0,0,1-.53-.53v-14C129.1,235.6,129.37,235.24,129.63,235.36Z"/><path class="cls-12" d="M131.67,236.28l4.3,1.94c.27.12.53.24.53.53v11.1a.53.53,0,0,1-.53.53h-4.3Z"/><path class="cls-13" d="M148.26,244.81h0a6.33,6.33,0,0,1,6.31,6.31v24.22H141.95V251.13A6.33,6.33,0,0,1,148.26,244.81Z"/><path class="cls-14" d="M150.2,245.12a6.34,6.34,0,0,1,4.38,6v24.22h-8.75V251.13A6.34,6.34,0,0,1,150.2,245.12Z"/><rect class="cls-15" x="127.58" y="248.69" width="10.45" height="15.02"/><rect class="cls-16" x="130.58" y="248.69" width="7.44" height="15.02"/><path class="cls-13" d="M126.71,260.57h12.63v13.69a1.34,1.34,0,0,1-1.33,1.33H128a1.34,1.34,0,0,1-1.33-1.33Z"/><path class="cls-14" d="M129.86,260.57h9.24a.24.24,0,0,1,.24.24v13.45a1.34,1.34,0,0,1-1.33,1.33h-7.05a1.34,1.34,0,0,1-1.33-1.33V260.81A.24.24,0,0,1,129.86,260.57Z"/><path class="cls-9" d="M151.78,266.57h0a1.19,1.19,0,0,0-1.19,1.19V268a1.19,1.19,0,0,0,1.19,1.19h0A1.19,1.19,0,0,0,153,268v-.24a1.19,1.19,0,0,0-1.19-1.19Zm0-12.65h0a1.19,1.19,0,0,0-1.19,1.19v9.53a1.19,1.19,0,0,0,1.19,1.19h0a1.19,1.19,0,0,0,1.19-1.19v-9.53A1.19,1.19,0,0,0,151.78,253.93Z"/><path class="cls-13" d="M126.71,266.62h12.63v2.6a.31.31,0,0,1-.31.31H127a.31.31,0,0,1-.31-.31Z"/><path class="cls-17" d="M456.46,259.31c9.65-5.08,13.17.21,16.68,4.32,4.39,5.14,9.45,5.17,14.51,0,3.38-3.46,9.16-10.27,17-.9,7.15,8.58,14.38-8.13,24.81-.44l.34.78"/><path class="cls-18" d="M187.21,260.81c9.65-5.08,13.17.21,16.68,4.32,4.39,5.14,9.45,5.17,14.51,0,3.38-3.46,9.16-10.27,17-.9,7.15,8.58,14.38-8.13,24.81-.44l.34.78"/><path class="cls-19" d="M170.56,85.31c9.65-5.08,13.17.21,16.68,4.32,4.39,5.14,9.45,5.17,14.51,0,3.38-3.46,9.16-10.27,17-.9,7.15,8.58,14.38-8.13,24.81-.44l.34.78"/><circle class="cls-20" cx="385.32" cy="28.75" r="3.05"/><path class="cls-21" d="M135,314.82a5.3,5.3,0,1,0-5.3-5.3A5.31,5.31,0,0,0,135,314.82Z"/><circle class="cls-20" cx="90.58" cy="292.14" r="2.91"/><path class="cls-21" d="M273.66,143.45a6.61,6.61,0,1,0-6.61-6.61A6.62,6.62,0,0,0,273.66,143.45Z"/><circle class="cls-20" cx="175.93" cy="172.14" r="2.91"/><path class="cls-21" d="M521.17,248.07a11.25,11.25,0,1,0-11.25-11.25A11.27,11.27,0,0,0,521.17,248.07Z"/><path class="cls-21" d="M513.72,285.57a5.3,5.3,0,1,0-5.3-5.3A5.31,5.31,0,0,0,513.72,285.57Z"/><circle class="cls-20" cx="532.33" cy="275.64" r="2.91"/><rect class="cls-4" x="83.52" y="34.06" width="116.47" height="116.47" rx="4.66" ry="4.66"/><path class="cls-22" d="M115.43,66.73c-1.86,1.76-.46,3.11,1.26,2.18,3.91-2.1,12.07-9.43,24.88-9.79,10.24-.29,22.1,8.13,25,9.6,1.66.84,2.48-.48,1.2-2-4.28-5-19.58-10.37-25.3-10.85,0-.77,0-1.55,0-2.32,0-4,5.35-2.62,5.07-8.73a5.73,5.73,0,0,0-5.46-5.57c-2.8,0-5.64,1.08-6.61,4.59-.56,2,.1,2.57.87,2.55,1.09,0,.86-1.36,1.08-2.14a4,4,0,0,1,4.38-3A3.89,3.89,0,0,1,145.62,45c.1,4.46-4,3.55-5,6.77a17.55,17.55,0,0,0-.2,4.26C134.05,56.43,120.11,62.3,115.43,66.73Z"/><path class="cls-23" d="M116.68,133.3a3.62,3.62,0,0,1,3.6,3.22,3.62,3.62,0,0,1,5.72,2.06,3.62,3.62,0,0,1,6,.86,3.62,3.62,0,0,1,6.52.58l0-.06a3.62,3.62,0,0,1,6.41,0,3.62,3.62,0,0,1,6.52-.58,3.62,3.62,0,0,1,6-.86,3.62,3.62,0,0,1,5.72-2.06,3.62,3.62,0,1,1,1.4,3.28,3.62,3.62,0,0,1-6.33,2,3.62,3.62,0,0,1-6.65,1,3.62,3.62,0,0,1-6.5.14,3.66,3.66,0,0,1-.21.47,3.62,3.62,0,0,1-6.59-.46,3.62,3.62,0,0,1-6.5-.14,3.62,3.62,0,0,1-6.65-1,3.62,3.62,0,0,1-6.33-2,3.62,3.62,0,1,1-2.19-6.5Z"/><path class="cls-24" d="M128.11,78.92c2.13,3.44,4.93,7.58,3.51,11.8-3.33,9.91-21.49,24.84-18.64,43.53,2.94,6.55,16,9.19,28.78,9.12s25.84-2.57,28.78-9.12c2.85-18.69-15.31-33.61-18.64-43.53-1.42-4.22,1.38-8.36,3.51-11.8,3.36-6-3.12-19.37-4.88-22.27a16.83,16.83,0,0,0-2.68-.82c.91,2.87,3.23,10.13,2.59,12.56-1,3.67-16.36,3.67-17.34,0-.64-2.43,1.67-9.69,2.59-12.56a16.84,16.84,0,0,0-2.68.82C131.24,59.55,124.76,72.9,128.11,78.92Z"/><circle class="cls-20" cx="504.39" cy="99.58" r="1.97"/><rect class="cls-4" x="254.93" y="16.79" width="79.97" height="79.97" rx="3.2" ry="3.2"/><path class="cls-25" d="M289.41,86c-3,4.5-12.56-1.8-9.58-6.31l6.93-10.5c4.15-6.28-5.56-12.67-9.72-6.42l-2.68,4"/><path class="cls-26" d="M275,66l-.37-.25a2.54,2.54,0,0,0-3.51.72l-1.39,2.12.45.3-.86,1.31a.52.52,0,0,0,.15.72h0a.52.52,0,0,0,.72-.15l.86-1.31,2,1.29L272.18,72a.52.52,0,0,0,.15.72h0a.52.52,0,0,0,.72-.15l.86-1.31.45.3,1.4-2.12A2.54,2.54,0,0,0,275,66Zm-1.13,1.31a.48.48,0,1,1-.67.14A.48.48,0,0,1,273.91,67.27Z"/><path class="cls-27" d="M289.66,86.86l-1.1-.73a1.25,1.25,0,0,1-.29-1.47l1.48-2.25s0,0,.06,0l2.78,1.83s0,0,0,.05l-1.48,2.25A1.25,1.25,0,0,1,289.66,86.86Z"/><path class="cls-28" d="M291.53,86.2,288.19,84c-1.46-1-1.33-3.75.28-6.2l15.42-23.4c.08-.12.2-.17.26-.13l8.39,5.53c.07,0,.06.18,0,.29L297.11,83.5C295.5,85.95,293,87.17,291.53,86.2Z"/><path class="cls-29" d="M299.66,60.83l4.23-6.42c.08-.12.2-.17.26-.13l8.39,5.53c.07,0,.06.18,0,.29l-4.17,6.33a12.25,12.25,0,0,1-8.7-5.6Z"/><path class="cls-30" d="M297.21,74.79l-.77-.51a1.57,1.57,0,0,1-.09-2.15l5-7.65a.07.07,0,0,1,.1,0l2.78,1.83a.07.07,0,0,1,0,.1l-5,7.65A1.57,1.57,0,0,1,297.21,74.79Z"/><path class="cls-29" d="M298.37,69.07l3-4.58a.07.07,0,0,1,.1,0l2.78,1.83a.07.07,0,0,1,0,.1l-3,4.58Z"/><path class="cls-31" d="M292.75,76.35l-1.84,2.79a.93.93,0,0,1-1.28.26h0a.93.93,0,0,1-.26-1.28l1.84-2.79a.93.93,0,0,1,1.28-.26h0A.93.93,0,0,1,292.75,76.35Z"/><path class="cls-31" d="M289.37,81.48h0a.93.93,0,0,1-1.28.26h0a.93.93,0,0,1-.26-1.28h0a.93.93,0,0,1,1.28-.26h0A.93.93,0,0,1,289.37,81.48Z"/><path class="cls-30" d="M315,45.25c-6.34-4.18-13.64,3.75-23.45-12.42l-8.58,13c17.58,3.69,13.64,12,20.67,16.64C315.11,70,328.26,54,315,45.25Z"/><path class="cls-28" d="M292.21,31.83h0a1.54,1.54,0,0,0-2.13.44L281.88,44.7a1.54,1.54,0,0,0,.44,2.13h0a1.54,1.54,0,0,0,2.13-.44L292.65,34A1.54,1.54,0,0,0,292.21,31.83Z"/><circle class="cls-32" cx="310.01" cy="54.32" r="7.03" transform="translate(94.09 283.3) rotate(-56.62)"/><path class="cls-33" d="M273.54,37.73h0a1,1,0,0,0,.3,1.12L280,44a.5.5,0,0,0,.83-.18h0a1,1,0,0,0-.3-1.12l-6.2-5.14A.5.5,0,0,0,273.54,37.73Z"/><path class="cls-33" d="M275.07,35.45h0a1,1,0,0,0,.3,1.12l6.2,5.14a.5.5,0,0,0,.83-.18h0a1,1,0,0,0-.3-1.12l-6.2-5.14A.5.5,0,0,0,275.07,35.45Z"/><path class="cls-33" d="M276.59,33.18h0a1,1,0,0,0,.3,1.12l6.2,5.14a.5.5,0,0,0,.83-.18h0a1,1,0,0,0-.3-1.12L277.42,33A.5.5,0,0,0,276.59,33.18Z"/><path class="cls-33" d="M278.12,30.9h0a1,1,0,0,0,.3,1.12l6.2,5.14a.5.5,0,0,0,.83-.18h0a1,1,0,0,0-.3-1.12l-6.2-5.14A.5.5,0,0,0,278.12,30.9Z"/><path class="cls-33" d="M279.64,28.62h0a1,1,0,0,0,.3,1.12l6.2,5.14a.5.5,0,0,0,.83-.18h0a1,1,0,0,0-.3-1.12l-6.2-5.14A.5.5,0,0,0,279.64,28.62Z"/><path class="cls-33" d="M281.17,26.35h0a1,1,0,0,0,.3,1.12l6.2,5.14a.5.5,0,0,0,.83-.18h0a1,1,0,0,0-.3-1.12L282,26.17A.5.5,0,0,0,281.17,26.35Z"/><path class="cls-21" d="M486.72,55.32a5.3,5.3,0,1,0-5.3-5.3A5.31,5.31,0,0,0,486.72,55.32Z"/><circle class="cls-20" cx="235.18" cy="102.39" r="2.91"/><circle class="cls-20" cx="540.95" cy="201.88" r="1.97"/><rect class="cls-4" x="403.68" y="49.66" width="70.2" height="70.2" rx="2.81" ry="2.81"/><path class="cls-34" d="M439.29,62.16c9.23,0,16.71,7,16.71,18.15s-7.48,22.41-16.71,22.41-16.71-11.21-16.71-22.41S430.06,62.16,439.29,62.16Z"/><path class="cls-35" d="M440.7,62.22c8.57.67,15.3,7.47,15.3,18.09s-6.73,21.25-15.3,22.32c-8.57-1.07-15.3-11.7-15.3-22.32S432.13,62.89,440.7,62.22Z"/><ellipse class="cls-36" cx="433.19" cy="80" rx="4.6" ry="2.82"/><ellipse class="cls-36" cx="445.39" cy="80" rx="4.6" ry="2.82"/><ellipse class="cls-36" cx="439.29" cy="92.58" rx="4.6" ry="2.82"/><path class="cls-37" d="M439.29,91.73a1.56,1.56,0,0,1,1.43-.72c.79,0,1.45.43,1.43,1-.05,1.22-5.72,1.17-5.72,0,0-.53.64-1,1.43-1A1.56,1.56,0,0,1,439.29,91.73Z"/><path class="cls-37" d="M441.17,93.3a2.7,2.7,0,0,1-1.9.72,2.54,2.54,0,0,1-1.88-.71C436.82,92.75,441.82,92.75,441.17,93.3Z"/><path class="cls-38" d="M447.78,80.51a5.29,5.29,0,0,1-4.48,0c-1.31-.61-.32-1.48.08-1.23a4,4,0,0,0,4.31,0C448.14,79.05,449.06,80,447.78,80.51Z"/><path class="cls-38" d="M435.2,80.51a5.29,5.29,0,0,1-4.48,0c-1.31-.61-.32-1.48.08-1.23a4,4,0,0,0,4.31,0C435.56,79.05,436.48,80,435.2,80.51Z"/><path class="cls-39" d="M449,92l3.43,1.83a.65.65,0,0,1,.27.88h0a.65.65,0,0,1-.88.27l-3.43-1.83a.65.65,0,0,1-.27-.88h0A.65.65,0,0,1,449,92Z"/><path class="cls-39" d="M429.52,92l-3.42,1.83a.65.65,0,0,0-.27.88h0a.65.65,0,0,0,.88.27l3.43-1.83a.65.65,0,0,0,.27-.88h0A.65.65,0,0,0,429.52,92Z"/><path class="cls-39" d="M449,70.31l3.42-1.83a.65.65,0,0,0,.27-.88h0a.65.65,0,0,0-.88-.27l-3.43,1.83a.65.65,0,0,0-.26.88h0A.65.65,0,0,0,449,70.31Z"/><path class="cls-39" d="M429.57,70.31l-3.43-1.83a.65.65,0,0,1-.27-.88h0a.65.65,0,0,1,.88-.27l3.43,1.83a.65.65,0,0,1,.27.88h0A.65.65,0,0,1,429.57,70.31Z"/><circle class="cls-20" cx="469.55" cy="132.58" r="1.97"/><circle class="cls-20" cx="220.15" cy="29.45" r="1.97"/><polyline class="cls-40" points="344.48 131.6 341.84 137.77 345.06 137.6"/><path class="cls-41" d="M342.82,142.39a2.9,2.9,0,0,0,2.73-2"/><ellipse class="cls-2" cx="336.15" cy="132.78" rx="2.46" ry="1.21" transform="matrix(0.29, -0.96, 0.96, 0.29, 111.83, 416.17)"/><ellipse class="cls-2" cx="353.45" cy="135.11" rx="2.46" ry="1.21" transform="translate(121.88 434.37) rotate(-73.19)"/><path class="cls-42" d="M349.2,127.2c2.82-1.61,6.36-1,9.94,1.22"/><path class="cls-43" d="M331.5,124.92c2.82-1.61,6.36-1,9.94,1.22"/><path class="cls-44" d="M369.86,143.65a1.87,1.87,0,0,1,1.46,2.25,2,2,0,0,1-2.18,1.67,1.87,1.87,0,0,1-1.46-2.25A2,2,0,0,1,369.86,143.65Z"/><polygon class="cls-3" points="330.23 156.41 336 157.8 329.4 161.81 330.23 156.41"/><path class="cls-3" d="M370.56,152.72a7.27,7.27,0,0,1-6.13-6.28,8.6,8.6,0,0,0,5.74,1.89Z"/><path class="cls-40" d="M368,139.89c1.23-3.57,3.8-5.52,8.17-5.13M297.12,237.49l-23.21-8.85m70.71,67.55a59.55,59.55,0,0,0-20.8,9.39c-8.43,5.92-2,18.19,5.76,13.05,9.47-6.28,26.17-12.38,37.37-11.37l56.17,5.05c25,2.25,45.22-5.16,37-37.3l-10.91-42.68m-99.09-23.93c-11.81,17-43.51,17.57-32.58-8.55-5.8,0-7.52-7.81,1.86-13.48-5.63-4.09-2.07-9.8,4.2-14.28m26.76,36.31c11.81,17,42.16,17.57,31.23-8.55,5.8,0,7.52-7.81-1.86-13.48,5.63-4.09,2.07-9.8-4.2-14.28m-28,94,2.7-58.08m74.15,113.39-1.46-9m-134.76,8.41L295,276.14l-1.61-16.6,7.3-44.88m110.18,32.2,38.46-15.43m-89.85,36.19-27.31-3.5c-4.76-.61-9.33,4.69-5.88,9.35m16.82,9.4c-8.2,2.11-14.74,3.63-22.27,8.32-9.94,6.2-2.52,16,3.24,14.14m81.66-81.82,10,44.82c-16.88-.38-40.12-2.37-56.28-.77C331.79,270.3,319,275,315.65,279.5s-1.56,11.93,6.15,11m-52-45.42q2.46-9.22,4.67-17.8c6.82-26.6,8.81-55.37,44.1-55.23l9.2,0m-88.08,13.7a7.67,7.67,0,0,1,10.82-.28h0a7.67,7.67,0,0,1,.28,10.82l-11.28,11.87a7.67,7.67,0,0,1-10.81.28h0a7.67,7.67,0,0,1-.28-10.81l11.28-11.87m-10.51,11.06-2.1-4.17a.56.56,0,0,0-.76-.25l-6.82,3.44a.59.59,0,0,0-.26.79l2.46,4.88a4.41,4.41,0,0,0,4.68,2.35m-9.53,4.26-2.47-4.9a.56.56,0,0,0-.76-.25l-6.82,3.44a.59.59,0,0,0-.26.79l2.46,4.88a4.41,4.41,0,0,0,5.9,1.95h0a4.41,4.41,0,0,0,1.95-5.9m18.86-11.93a.59.59,0,0,0-.83,0l-3.75,3.94a4.39,4.39,0,0,0,.16,6.19h0a4.39,4.39,0,0,0,6.19-.16l3.77-4a.56.56,0,0,0,0-.79l-5.52-5.24m-12.82-16.87c-5.45-9.84-9.52-13.55-13.8-18.14-6.87-7.36,4.1-16.57,12.77-9.61,9.28,7.46,15.93,20.73,21.16,32.15m6.89,13.5c6.72,14.54,17.88,43.86,26.8,67.67m11.54,52.2c-9.64,7.1-31.47,6.78-39.56-11L207.5,215.29m165.1-43,31.95.12c37.14.14,37.72,32,44.68,59.95m-77.69-96.89a8.17,8.17,0,0,1,1.9,4.77m-159,38.07h0a7.7,7.7,0,0,1,8.49,1.07l.29.27a7.61,7.61,0,0,1,1.52,2.06l6.55,13-2.84,3a7.68,7.68,0,0,0-.85,9.46,7.7,7.7,0,0,1-9.17-3.86L211,188.62a7.7,7.7,0,0,1,3.4-10.31ZM355.9,221.55a1.87,1.87,0,0,1,1.46,2.25,2,2,0,0,1-2.18,1.67,1.87,1.87,0,0,1-1.46-2.25,2,2,0,0,1,2.18-1.67Zm-1.2,38.17a1.87,1.87,0,0,1,1.46,2.25,2,2,0,0,1-2.18,1.67,1.87,1.87,0,0,1-1.46-2.25,2,2,0,0,1,2.18-1.67Zm.81-19.09a1.87,1.87,0,0,1,1.46,2.25,2,2,0,0,1-2.18,1.67,1.87,1.87,0,0,1-1.46-2.25,2,2,0,0,1,2.18-1.67ZM335.4,114,326,148.63c-1.09,4,.37,6.67,4.61,8.47l-2.77,15,0,.14-2.12,11.5c-5.76,31.27,51.15,32.23,48-.35l-1-10.69,0-.42L370.35,149c17.06-6.54,11.64-25.36-1.23-19.27M202.06,188.32h0a7.7,7.7,0,0,1,10.31,3.4l7.39,14.67a7.7,7.7,0,0,1-3.4,10.31h0a7.7,7.7,0,0,1-8.45-1l-.41-.38a7.6,7.6,0,0,1-1.45-2l-7.39-14.67A7.7,7.7,0,0,1,202.06,188.32Z"/></g></svg>