<svg id="Blanja_-_Ecomerce_Illustration_Kit" data-name="Blanja - Ecomerce Illustration Kit" xmlns="http://www.w3.org/2000/svg" viewBox="0 0 600 336"><defs><style>.cls-1{fill:#efede4;}.cls-2,.cls-23,.cls-24,.cls-25{fill:none;}.cls-2{stroke:#000;}.cls-17,.cls-2,.cls-20,.cls-24,.cls-25{stroke-miterlimit:22.93;}.cls-17,.cls-2{stroke-width:1.42px;}.cls-3{fill:#415ea9;}.cls-22,.cls-4{fill:#0a0910;}.cls-5{fill:#070838;}.cls-10,.cls-11,.cls-12,.cls-14,.cls-18,.cls-19,.cls-20,.cls-21,.cls-22,.cls-23,.cls-24,.cls-25,.cls-26,.cls-27,.cls-5{fill-rule:evenodd;}.cls-6{fill:red;}.cls-7{fill:#fdd501;}.cls-8{fill:#55b459;}.cls-14,.cls-17,.cls-20,.cls-9{fill:#fff;}.cls-10{fill:#7d2a03;}.cls-11{fill:#d70034;}.cls-12{fill:#e165b0;}.cls-13{fill:#fc141c;}.cls-15,.cls-19{fill:#cbc6b8;}.cls-16{fill:#999;}.cls-17,.cls-20,.cls-23{stroke:#0a0910;}.cls-18{fill:#ffa100;}.cls-20{stroke-width:2.13px;}.cls-21{fill:#fc151e;}.cls-23{stroke-linecap:round;stroke-linejoin:round;stroke-width:0.57px;}.cls-24,.cls-25{stroke:#ffa100;}.cls-24{stroke-width:0.53px;}.cls-25{stroke-width:0.53px;}.cls-26{fill:#ffab15;}.cls-27{fill:#355da8;}</style></defs><title>Belanja - E-comerce Illustrstion Kit</title><g id="Ratings_and_Reviews" data-name="Ratings and Reviews"><rect class="cls-1" y="0.01" width="600" height="336"/><line class="cls-2" x1="99.9" y1="65.08" x2="89.39" y2="75.66"/><line class="cls-2" x1="109.12" y1="65.08" x2="89.39" y2="84.95"/><line class="cls-2" x1="118.34" y1="65.08" x2="89.39" y2="94.24"/><line class="cls-2" x1="127.56" y1="65.08" x2="89.39" y2="103.53"/><line class="cls-2" x1="136.79" y1="65.08" x2="89.39" y2="112.81"/><line class="cls-2" x1="146.01" y1="65.08" x2="89.39" y2="122.1"/><line class="cls-2" x1="155.23" y1="65.08" x2="89.39" y2="131.39"/><line class="cls-2" x1="164.45" y1="65.08" x2="89.39" y2="140.68"/><line class="cls-2" x1="173.67" y1="65.08" x2="89.39" y2="149.97"/><line class="cls-2" x1="182.89" y1="65.08" x2="89.39" y2="159.25"/><line class="cls-2" x1="192.12" y1="65.08" x2="89.39" y2="168.54"/><line class="cls-2" x1="201.34" y1="65.08" x2="89.39" y2="177.83"/><line class="cls-2" x1="210.56" y1="65.08" x2="89.39" y2="187.12"/><line class="cls-2" x1="219.78" y1="65.08" x2="89.39" y2="196.41"/><line class="cls-2" x1="229" y1="65.08" x2="89.39" y2="205.7"/><line class="cls-2" x1="238.23" y1="65.08" x2="89.39" y2="214.98"/><line class="cls-2" x1="247.45" y1="65.08" x2="89.39" y2="224.27"/><line class="cls-2" x1="256.67" y1="65.08" x2="89.39" y2="233.56"/><line class="cls-2" x1="265.89" y1="65.08" x2="89.39" y2="242.85"/><line class="cls-2" x1="275.11" y1="65.08" x2="89.39" y2="252.14"/><line class="cls-2" x1="284.34" y1="65.08" x2="89.39" y2="261.43"/><line class="cls-2" x1="293.56" y1="65.08" x2="92.21" y2="267.88"/><line class="cls-2" x1="302.78" y1="65.08" x2="101.43" y2="267.88"/><line class="cls-2" x1="312" y1="65.08" x2="110.65" y2="267.88"/><line class="cls-2" x1="321.22" y1="65.08" x2="119.87" y2="267.88"/><line class="cls-2" x1="330.44" y1="65.08" x2="129.09" y2="267.88"/><line class="cls-2" x1="339.67" y1="65.08" x2="138.32" y2="267.88"/><line class="cls-2" x1="348.89" y1="65.08" x2="147.54" y2="267.88"/><line class="cls-2" x1="358.11" y1="65.08" x2="156.76" y2="267.88"/><line class="cls-2" x1="359.39" y1="73.08" x2="165.98" y2="267.88"/><line class="cls-2" x1="359.39" y1="82.36" x2="175.2" y2="267.88"/><line class="cls-2" x1="359.39" y1="91.65" x2="184.42" y2="267.88"/><line class="cls-2" x1="359.39" y1="100.94" x2="193.65" y2="267.88"/><line class="cls-2" x1="359.39" y1="110.23" x2="202.87" y2="267.88"/><line class="cls-2" x1="359.39" y1="119.52" x2="212.09" y2="267.88"/><line class="cls-2" x1="359.39" y1="128.8" x2="221.31" y2="267.88"/><line class="cls-2" x1="359.39" y1="138.09" x2="230.53" y2="267.88"/><line class="cls-2" x1="359.39" y1="147.38" x2="239.76" y2="267.88"/><line class="cls-2" x1="359.39" y1="156.67" x2="248.98" y2="267.88"/><line class="cls-2" x1="359.39" y1="165.96" x2="258.2" y2="267.88"/><line class="cls-2" x1="359.39" y1="175.25" x2="267.42" y2="267.88"/><line class="cls-2" x1="359.39" y1="184.53" x2="276.64" y2="267.88"/><line class="cls-2" x1="359.39" y1="193.82" x2="285.86" y2="267.88"/><line class="cls-2" x1="359.39" y1="203.11" x2="295.09" y2="267.88"/><line class="cls-2" x1="359.39" y1="212.4" x2="304.31" y2="267.88"/><line class="cls-2" x1="359.39" y1="221.69" x2="313.53" y2="267.88"/><line class="cls-2" x1="359.39" y1="230.98" x2="322.75" y2="267.88"/><line class="cls-2" x1="359.39" y1="240.26" x2="331.97" y2="267.88"/><line class="cls-2" x1="359.39" y1="249.55" x2="341.2" y2="267.88"/><line class="cls-2" x1="359.39" y1="258.84" x2="350.42" y2="267.88"/><rect class="cls-3" x="116.4" y="43.36" width="267.22" height="200.14" rx="8.8" ry="8.8"/><rect class="cls-4" x="123" y="70.86" width="254.03" height="164.95" rx="7.25" ry="7.25"/><path class="cls-5" d="M130.25,70.86H263L123,213.11v-135A7.27,7.27,0,0,1,130.25,70.86Z"/><circle class="cls-6" cx="132.72" cy="57.2" r="3.94"/><circle class="cls-7" cx="144.72" cy="57.2" r="3.94"/><circle class="cls-8" cx="156.73" cy="57.2" r="3.94"/><rect class="cls-9" x="162.86" y="85.43" width="174.31" height="135.8" rx="16.5" ry="16.5"/><path class="cls-10" d="M185.81,131c-1.63,1.54-.41,2.72,1.1,1.91,3.41-1.83,10.54-8.24,21.74-8.56,8.95-.25,19.31,7.1,21.87,8.39,1.45.74,2.17-.42,1-1.72-3.74-4.35-17.11-9.06-22.1-9.48,0-.68,0-1.35,0-2,0-3.5,4.68-2.29,4.43-7.63a5,5,0,0,0-4.77-4.86c-2.45,0-4.92.95-5.77,4-.49,1.76.09,2.24.76,2.23.95,0,.75-1.19.95-1.87a3.49,3.49,0,0,1,3.83-2.65,3.4,3.4,0,0,1,3.3,3.28c.08,3.89-3.54,3.1-4.34,5.92a15.34,15.34,0,0,0-.17,3.72C202.08,122,189.89,127.12,185.81,131Z"/><path class="cls-11" d="M186.89,189.16A3.16,3.16,0,0,1,190,192a3.16,3.16,0,0,1,5,1.8,3.16,3.16,0,0,1,5.26.75,3.16,3.16,0,0,1,5.7.51l0-.05a3.16,3.16,0,0,1,5.6,0,3.16,3.16,0,0,1,5.7-.51,3.16,3.16,0,0,1,5.26-.75,3.16,3.16,0,0,1,5-1.8,3.16,3.16,0,1,1,1.23,2.86,3.16,3.16,0,0,1-5.53,1.73,3.16,3.16,0,0,1-5.81.88,3.16,3.16,0,0,1-5.68.12,3.17,3.17,0,0,1-5.95,0,3.16,3.16,0,0,1-5.68-.12,3.16,3.16,0,0,1-5.81-.88,3.16,3.16,0,0,1-5.53-1.73,3.16,3.16,0,1,1-1.92-5.68Z"/><path class="cls-12" d="M196.89,141.64c1.86,3,4.3,6.62,3.06,10.31-2.91,8.66-18.78,21.7-16.29,38,2.57,5.72,14,8,25.15,8s22.58-2.24,25.15-8c2.49-16.33-13.38-29.37-16.29-38-1.24-3.69,1.2-7.3,3.06-10.31,2.93-5.26-2.73-16.93-4.27-19.46a14.73,14.73,0,0,0-2.34-.72c.8,2.51,2.82,8.85,2.26,11-.85,3.21-14.3,3.21-15.15,0-.56-2.12,1.46-8.47,2.26-11a14.73,14.73,0,0,0-2.34.72C199.62,124.72,194,136.38,196.89,141.64Z"/><rect class="cls-13" x="262.02" y="169.02" width="44.99" height="18.79" rx="9.4" ry="9.4"/><path class="cls-14" d="M271.45,183.56V173.42h3.69a4.44,4.44,0,0,1,1.81.31,2.34,2.34,0,0,1,1.06.95,2.53,2.53,0,0,1,.39,1.34,2.37,2.37,0,0,1-.34,1.22,2.46,2.46,0,0,1-1,.93,2.55,2.55,0,0,1,1.37.92,2.51,2.51,0,0,1,.48,1.53,3,3,0,0,1-.29,1.33,2.56,2.56,0,0,1-.72.94,3,3,0,0,1-1.07.5,6.34,6.34,0,0,1-1.59.17Zm1.3-5.88h2.13a4.6,4.6,0,0,0,1.24-.12,1.37,1.37,0,0,0,.75-.51,1.5,1.5,0,0,0,.25-.89,1.66,1.66,0,0,0-.24-.89,1.19,1.19,0,0,0-.67-.53,5.44,5.44,0,0,0-1.49-.14h-2v3.07Zm0,4.69h2.45a5.36,5.36,0,0,0,.89,0,2.06,2.06,0,0,0,.75-.28,1.47,1.47,0,0,0,.5-.57,1.82,1.82,0,0,0,.19-.86,1.72,1.72,0,0,0-.28-1,1.48,1.48,0,0,0-.78-.59,4.67,4.67,0,0,0-1.44-.17h-2.27v3.5Zm14.34-9h1.3v5.86a7.19,7.19,0,0,1-.33,2.43,3,3,0,0,1-1.21,1.46,4.17,4.17,0,0,1-2.29.56,4.57,4.57,0,0,1-2.25-.49,2.76,2.76,0,0,1-1.25-1.42,7,7,0,0,1-.37-2.54v-5.86H282v5.85a5.9,5.9,0,0,0,.24,1.95,1.84,1.84,0,0,0,.81,1,2.74,2.74,0,0,0,1.41.34,2.64,2.64,0,0,0,2-.67,4,4,0,0,0,.61-2.58v-5.85Zm6.24,10.14v-4.3l-3.79-5.85h1.56l1.94,3.07c.36.57.7,1.14,1,1.71q.45-.8,1.09-1.79l1.9-3h1.52l-3.92,5.85v4.3Z"/><rect class="cls-15" x="252.4" y="155.75" width="64.23" height="3.59" rx="1.8" ry="1.8"/><rect class="cls-15" x="252.4" y="148.33" width="64.23" height="3.59" rx="1.8" ry="1.8"/><rect class="cls-15" x="252.4" y="140.08" width="46.23" height="3.59" rx="1.8" ry="1.8"/><rect class="cls-16" x="252.4" y="125.53" width="36.61" height="8.8" rx="4.4" ry="4.4"/><path class="cls-14" d="M155.36,138.08h0a3.93,3.93,0,0,0-5.47-.92L131.79,150a3.89,3.89,0,0,0-1.07,1h0a3.89,3.89,0,0,0-.72,2.19v.17a3.89,3.89,0,0,0,.72,2.19h0a3.89,3.89,0,0,0,1.07,1L149.9,169.5a3.93,3.93,0,0,0,5.47-.92h0a3.93,3.93,0,0,0-.92-5.47l-13.75-9.78,13.75-9.78A3.93,3.93,0,0,0,155.36,138.08Z"/><path class="cls-14" d="M344.76,138.08h0a3.93,3.93,0,0,1,5.47-.92L368.33,150a3.89,3.89,0,0,1,1.07,1h0a3.89,3.89,0,0,1,.72,2.19v.17a3.89,3.89,0,0,1-.72,2.19h0a3.89,3.89,0,0,1-1.07,1L350.23,169.5a3.93,3.93,0,0,1-5.47-.92h0a3.93,3.93,0,0,1,.92-5.47l13.75-9.78-13.75-9.78A3.93,3.93,0,0,1,344.76,138.08Z"/><rect class="cls-4" x="254.61" y="218.67" width="225.71" height="74" rx="7.78" ry="7.78"/><rect class="cls-17" x="248.11" y="211.67" width="225.71" height="74" rx="7.78" ry="7.78"/><polygon class="cls-18" points="332.47 237.26 336.18 244.77 344.47 245.98 338.47 251.83 339.89 260.08 332.47 256.18 325.05 260.08 326.47 251.83 320.47 245.98 328.76 244.77 332.47 237.26"/><path class="cls-18" d="M362,237.26l3.71,7.51L374,246l-6,5.84,1.42,8.26-7.42-3.9-7.42,3.9,1.42-8.26L350,246l8.29-1.21Z"/><path class="cls-18" d="M391.47,237.26l3.71,7.51,8.29,1.21-6,5.84,1.42,8.26-7.42-3.9-7.42,3.9,1.42-8.26-6-5.84,8.29-1.21Z"/><path class="cls-19" d="M421,237.26l3.71,7.51L433,246l-6,5.84,1.42,8.26-7.42-3.9-7.42,3.9,1.42-8.26L409,246l8.29-1.21Z"/><polygon class="cls-19" points="450.47 237.26 454.18 244.77 462.47 245.98 456.47 251.83 457.89 260.08 450.47 256.18 443.05 260.08 444.47 251.83 438.47 245.98 446.76 244.77 450.47 237.26"/><path class="cls-20" d="M283.45,273.41a24.74,24.74,0,1,0-24.74-24.74A24.78,24.78,0,0,0,283.45,273.41Z"/><path class="cls-21" d="M299.46,265.93c3.81-.51,2.53-3.25,2-7.72-.24-2,1.65-6,1.55-7.4-.26-3.91-7.38-3.41-9.59-5.93s1-3.53-5.37-6c-2.28-.89,2.54-4.83-1.58-7.81-5.12-3.71-12.39-6.65-16.43-.28-6.15,9.71,2.8,8.19-2.19,12.85-2.77,2.59.41,4,5.24,3.71l.32-6.38c-4-2.25-2.68-6.73.84-4.88,1,.83,3.62-1.15,4.16-3.91,1.88-.82,5.84,1.27,6,2.32l.9,7.48c.09.75-.8,1.58-1.63,1.81l0,3.53c1.85,0,5.64-.51,9,1.49C297,251.36,298.89,265.07,299.46,265.93Z"/><polygon class="cls-22" points="283.66 243.49 281.99 243.76 283.77 245.04 283.66 243.49"/><path class="cls-23" d="M280.85,239.69a.75.75,0,0,1-.71-.53m-5.93-.58a1.84,1.84,0,0,0-2-1.49m-7.76,25.69,1-6m-5.51-5c.24-3,4-4.61,5.48-4.6l7.79,0m11.21-13.06.88,7.46c.13,1.07-.55,1.77-1.68,2.15l0,4.16c.07,8.26-10.85,8.41-10.48-.08l.31-7c-4.29-2-2.5-6.8.71-5M279,255.63c7.45,10.7,12.35-4.23,6.48-8.42M279,255.63c-7.44,10.68-12.68-4.36-7-8.42m11.56.07,4.11,0c8,0,9.28,9.23,11.8,19.29m-7.52-4.2,6-2.3m-4.69,10.45L291,256.45M281,272.2l-2.09-16.4m-5.51-18.44a2.12,2.12,0,0,0-.59,1.2m6.52-2.55a2.49,2.49,0,0,0-2.58.32m7.18-.91a2.49,2.49,0,0,0-2.58.32m-.14,1.58.68,1.6-.84,0m1,25.87a.48.48,0,0,0-.38.58.51.51,0,0,0,.57.43.48.48,0,0,0,.38-.58A.51.51,0,0,0,282.09,264.75Z"/><ellipse class="cls-4" cx="282.71" cy="237.46" rx="0.31" ry="0.64" transform="translate(-56.59 91.9) rotate(-16.81)"/><ellipse class="cls-4" cx="278.54" cy="237.97" rx="0.31" ry="0.64" transform="translate(-56.92 90.72) rotate(-16.81)"/><path class="cls-24" d="M273.77,239.94a2.58,2.58,0,1,1-1.89.14"/><path class="cls-25" d="M285.3,239.94a2.58,2.58,0,1,1-1.45,5"/><path class="cls-21" d="M423.73,127.66c.06,10.15,5.52,12,10.63,12.11-9.18,1.85-10,3.35-10.88,13.56-.2-7.49-1.2-12.83-11.45-14.5C414,138.86,424.31,141.52,423.73,127.66Z"/><path class="cls-26" d="M456.7,148.86c0,7.43,4,8.75,7.78,8.87-6.72,1.35-7.33,2.45-8,9.92-.15-5.48-.88-9.39-8.38-10.61C449.6,157.06,457.12,159,456.7,148.86Z"/><path class="cls-27" d="M451,82.66c.09,15.57,8.47,18.34,16.32,18.59-14.09,2.84-15.37,5.14-16.69,20.8-.31-11.49-1.83-19.68-17.58-22.25C436.1,99.85,451.87,103.93,451,82.66Z"/><path class="cls-14" d="M376.53,10h50.35a25.07,25.07,0,0,1,25,25h0a25.07,25.07,0,0,1-25,25H351.53V35A25.07,25.07,0,0,1,376.53,10Z"/><path class="cls-21" d="M377.71,40.22A5.25,5.25,0,1,0,372.46,35,5.26,5.26,0,0,0,377.71,40.22Z"/><path class="cls-21" d="M401.71,40.22A5.25,5.25,0,1,0,396.46,35,5.26,5.26,0,0,0,401.71,40.22Z"/><path class="cls-21" d="M425.71,40.22A5.25,5.25,0,1,0,420.46,35,5.26,5.26,0,0,0,425.71,40.22Z"/></g></svg>