<svg id="Blanja_-_Ecomerce_Illustration_Kit" data-name="Blanja - Ecomerce Illustration Kit" xmlns="http://www.w3.org/2000/svg" viewBox="0 0 600 336"><defs><style>.cls-1{fill:#efede4;}.cls-11,.cls-2{fill:#0a0910;}.cls-10,.cls-18,.cls-27,.cls-28,.cls-3,.cls-4,.cls-5,.cls-6,.cls-7,.cls-8,.cls-9{fill:none;}.cls-3{stroke:#070838;stroke-width:1.1px;}.cls-27,.cls-28,.cls-3,.cls-4,.cls-5,.cls-6,.cls-7{stroke-linecap:round;stroke-linejoin:round;}.cls-11,.cls-12,.cls-13,.cls-14,.cls-15,.cls-16,.cls-17,.cls-18,.cls-19,.cls-20,.cls-23,.cls-26,.cls-27,.cls-28,.cls-29,.cls-3,.cls-4,.cls-5,.cls-6,.cls-7,.cls-9{fill-rule:evenodd;}.cls-10,.cls-27,.cls-28,.cls-4{stroke:#0a0910;}.cls-10,.cls-16,.cls-18,.cls-4,.cls-8,.cls-9{stroke-width:1.42px;}.cls-5{stroke:#ffa100;}.cls-5,.cls-6,.cls-7{stroke-width:2.13px;}.cls-6{stroke:#242f92;}.cls-7{stroke:#f00000;}.cls-8,.cls-9{stroke:#355da8;}.cls-10,.cls-16,.cls-18,.cls-8,.cls-9{stroke-miterlimit:22.93;}.cls-12{fill:#273695;}.cls-13{fill:#355da8;}.cls-14{fill:#070838;}.cls-15{fill:#0a090f;}.cls-16,.cls-20{fill:#ffa100;}.cls-16{stroke:#0a090f;}.cls-17,.cls-21,.cls-24{fill:#fff;}.cls-18{stroke:#000;}.cls-19,.cls-22{fill:#fc151e;}.cls-23{fill:#e5e5e5;}.cls-24{font-size:18px;font-family:Calibri, Calibri;}.cls-25,.cls-26{fill:red;}.cls-27{stroke-width:1.42px;}.cls-28{stroke-width:3.41px;}.cls-29{fill:#ffab15;}</style></defs><title>Belanja - E-comerce Illustrstion Kit</title><g id="Customer_Support" data-name="Customer Support"><rect class="cls-1" y="0.04" width="600" height="336"/><rect class="cls-2" x="84" y="326.3" width="432" height="2.52" rx="1.26" ry="1.26"/><path class="cls-3" d="M216.84,141.78c-.95-3.65-3.36-5.8-7.75-5.74m4.61,1.06a8.16,8.16,0,0,0-2.26,4.61"/><path class="cls-4" d="M286.81,240.4,310,231.55m32.42-52.47,2.73-.22a.56.56,0,0,0,.51-.6l-.43-5.44a4.38,4.38,0,0,0-2.43-3.58m-42,158L283.25,217.58m32.34,35.54c-1.64-6.15-4.7-17.18-6.17-22.9-6.82-26.6-8.81-55.37-44.1-55.23l-11,.11M158.59,327l3.56-18m71.4-97.67C205.67,251.33,185,191.7,208.4,175m29.45,115.85a28.66,28.66,0,0,1,13.4,7c14.29,13.65-4.65,18.16-9.12,13m-71.52-62.08-38-15.26m90.47,39.91,27.48,1c4.73.17,8.73,6.1,4.52,10.23m-19.26,21.11a14.7,14.7,0,0,1,4.89,3.54c7.78,9.81,1.71,16.73-6.86,16.22l-16.49-1c-2.17-.13-3.29-7.33-.49-8.84m7.6,1.18c-7.85-2.67-13.56,1.61-24.34-6.67-41.37-4.81-91.39,9.42-76.14-45l8.74-31.15m44.42-12.31-9.75,43.58c16.73,2.29,40,4,55.69,8.13C249.92,280.59,276.35,294,279,299c2.39,4.54,0,11-6.31,10.23-.48-.06-19.28-9.7-19.81-9.85m-19.06-88c27.88,40,50.72-19,26.51-36.31M237,273.28l-3.34-62.4m63.85,89.59c4.31,14.18,26.92,21.58,39.2.72l53.79-91.4a17.68,17.68,0,0,0,2-5,7.6,7.6,0,0,0,2-1.28l12.31-10.83c7.47-6.57-2.55-18.17-10.12-11.51l-8.61,7.58,11.32-10.26c11.53-10.15.5-22.63-10.12-11.51-7.7,8.06-14,14.16-12.9,12.65.74-1,4.74-5.32,13.75-14.6,5.95-6.13-3.64-16.29-9.93-9.81L357,179.18m18.3,22c-.74-10.26-9.86-14.36-16.09-14.21l-4.63-15.67c-2.42-8.18-13.71-8-12.48,4l2.28,22.19c-10.35,18.67-26.06,50.46-36.48,71.64m-96.68-94-31.83.2c-37.14.14-39.82,31.41-46.78,59.35M250.18,119.05l9.14,34.49c1.07,4-2.11,6.83-6.47,8.29l2.23,20.4.31,2.8c1.58,14.46-8.45,22.43-19.46,23.71-13.07,1.52-27.53-6.37-25.67-24l3.58-34.07c-16.51-7.84-9.64-26.18,2.72-19.11m26.57,117.11a1.87,1.87,0,0,0-1.46,2.25,2,2,0,0,0,2.18,1.67,1.87,1.87,0,0,0,1.46-2.25,2,2,0,0,0-2.18-1.67Zm-.39-19.09a1.87,1.87,0,0,0-1.46,2.25,2,2,0,0,0,2.18,1.67,1.87,1.87,0,0,0,1.46-2.25A2,2,0,0,0,242.74,229.56Z"/><path class="cls-5" d="M143.6,262.22c-9.65-5.08-13.17.21-16.68,4.32-4.39,5.14-9.45,5.17-14.51,0-3.38-3.46-9.16-10.27-17-.9-7.15,8.58-14.38-8.13-24.81-.44l-.34.78"/><path class="cls-6" d="M458.37,286.22c-9.65-5.08-13.17.21-16.68,4.32-4.39,5.14-9.45,5.17-14.51,0-3.38-3.46-9.16-10.27-17-.9-7.15,8.58-14.38-8.13-24.81-.44l-.34.78"/><path class="cls-7" d="M203.9,52.52c-9.65-5.08-13.17.21-16.68,4.32-4.39,5.14-9.45,5.17-14.51,0-3.38-3.46-9.16-10.27-17-.9-7.15,8.58-14.38-8.13-24.81-.44l-.34.78"/><circle class="cls-8" cx="236.34" cy="31.66" r="3.05"/><path class="cls-9" d="M468.61,259.24a5.3,5.3,0,1,0-5.3-5.3A5.31,5.31,0,0,0,468.61,259.24Z"/><circle class="cls-8" cx="477" cy="280.05" r="2.91"/><circle class="cls-8" cx="336" cy="38.85" r="2.91"/><path class="cls-9" d="M102.13,251a11.25,11.25,0,1,0-11.25-11.25A11.27,11.27,0,0,0,102.13,251Z"/><path class="cls-9" d="M102.24,186.64a5.3,5.3,0,1,0-5.3-5.3A5.31,5.31,0,0,0,102.24,186.64Z"/><circle class="cls-10" cx="75.23" cy="232.05" r="2.91"/><circle class="cls-10" cx="141.3" cy="168.79" r="1.97"/><polygon class="cls-11" points="253.26 161.18 247.4 162.12 253.67 166.63 253.26 161.18"/><path class="cls-11" d="M262.83,127.35c-.29-18-6-22.33-16-26.65-8.61-3.73-12.22,1.38-24.37,1s-20.46-1.15-22.17,13.37c-1,8.45-2.09,16.19-6.94,20.34-18.34,15.71-6.84,21.94-8.83,31.45l13.28.75-.85-13.34,3.16,13.43,3,.16.32-7.79,1.57,8,12.87.61c-6.18-7.43,2.2-8.74-5-18.94-13.18-5.05-10.39-25.85,3.92-18.3,4.62-2.19,5.94-6.35,6.6-16.9,6.72,3.74,16,8.07,27.25,4.32l7.91,33.05c1.17,4.89-1.22,8.55-6.48,10.08l.49,4.35,13.36-1.05.83-9.43,1.55,9.17,7-.54C281,145.34,260.83,143.9,262.83,127.35Z"/><path class="cls-12" d="M228.25,96.7c-9.28.74-24.93,15.56-23.33,33.89,1.4,16,21.08,23.2,29.23,24.26l.12-2c-7.28-2.49-21-5.93-22.3-22.12-1.23-14.85,15-33.09,29.69-30.86C246.87,100.5,238.43,94.84,228.25,96.7Z"/><path class="cls-13" d="M208.52,129c-5.35.43-9.2,5.45-8.6,11.21s5.42,10.08,10.77,9.65,9.2-5.45,8.6-11.22S213.88,128.56,208.52,129Z"/><path class="cls-14" d="M236.24,152.48l-2.54-.67a2.07,2.07,0,0,0-2.52,1.47h0a2.07,2.07,0,0,0,1.47,2.52l2.54.67a2.07,2.07,0,0,0,2.52-1.47h0A2.07,2.07,0,0,0,236.24,152.48Z"/><path class="cls-15" d="M372.35,70.55v48.61c0,2.64,3.29,3.75,5.75,2.17l14.27-9.15,106.25.08c4,0,12.79-10.95,12.9-14.09V61.25c0-2.64-2.51-4.79-5.57-4.79-40.23,0-80.47.48-120.7,0C379,56.38,372.24,66.84,372.35,70.55Z"/><path class="cls-16" d="M505.95,56.45H385.25c-3.07,0-5.57,2.16-5.57,4.79v48.61c0,2.64,3.29,3.75,5.75,2.17l14.27-9.15,106.25.08c3.07,0,5.57-2.16,5.57-4.79V61.25C511.52,58.61,509,56.45,505.95,56.45Z"/><path class="cls-17" d="M496.12,68.1h-101a2,2,0,0,0-1.95,2h0A2,2,0,0,0,395.07,72h101a2,2,0,0,0,1.95-1.95h0A2,2,0,0,0,496.12,68.1Z"/><path class="cls-17" d="M496.12,79.65h-101a2,2,0,0,0-1.95,1.95h0a2,2,0,0,0,1.95,2h101a2,2,0,0,0,1.95-2h0A2,2,0,0,0,496.12,79.65Z"/><path class="cls-17" d="M444.13,91.2H395.07a2,2,0,0,0-1.95,2h0a2,2,0,0,0,1.95,1.95h49.05a2,2,0,0,0,1.95-1.95h0A2,2,0,0,0,444.13,91.2Z"/><path class="cls-15" d="M431.17,132.67v40.87h0v.24l0,.12,0,.12,0,.12,0,.12,0,.12h0l0,.11,0,.11,0,.11h0l0,.11,0,.11,0,.11h0l0,.11,0,.11,0,.1h0l0,.1h0l.1.2.06.1h0l.06.1h0l.06.09h0l.06.09.06.09h0l.06.09.07.09.07.09.07.08.07.08h0l.07.08h0l.08.08.08.08h0l.08.07.08.07h0l.08.07.08.07h0l.09.07h0l.09.06.09.06h0l.09.06.09.06.09.05h0l.09.05.09,0,.1,0h0l.1,0h0l.1,0h0l.1,0h0l.1,0,.1,0,.1,0h0l.1,0,.1,0h0l.11,0h0l.11,0,.11,0h.55l82.31-.08L528.86,187a2.59,2.59,0,0,0,4.26-1l.75-.11-6.66,9.75c-1.54,2.26-2.55,3.75-4.45,2.17l-11.05-9.15-82.31.08a4.59,4.59,0,0,1-4.32-4.79V147.06C425.07,146.13,430.38,135.86,431.17,132.67Z"/><path class="cls-18" d="M435.49,131.47H529a4.59,4.59,0,0,1,4.32,4.79v48.61a2.64,2.64,0,0,1-4.45,2.17l-11.05-9.15-82.31.08a4.59,4.59,0,0,1-4.32-4.79V136.26A4.59,4.59,0,0,1,435.49,131.47Z"/><path class="cls-13" d="M443.54,143.12h77.4a2,2,0,0,1,1.95,2h0a2,2,0,0,1-1.95,1.95h-77.4a2,2,0,0,1-1.95-1.95h0A2,2,0,0,1,443.54,143.12Z"/><path class="cls-19" d="M443.54,154.67h77.4a2,2,0,0,1,1.95,1.95h0a2,2,0,0,1-1.95,2h-77.4a2,2,0,0,1-1.95-2h0A2,2,0,0,1,443.54,154.67Z"/><path class="cls-20" d="M483.82,166.22h37.12a2,2,0,0,1,1.95,2h0a2,2,0,0,1-1.95,1.95H483.82a2,2,0,0,1-1.95-1.95h0A2,2,0,0,1,483.82,166.22Z"/><path class="cls-15" d="M446.49,214.61l4-3.75a4.06,4.06,0,0,0-.48,1.93v15.5a4.11,4.11,0,0,0,4.1,4.1h50.15A4.06,4.06,0,0,0,506,232v0l-3.53,3.61c-1.58,1.61-3.23,3.69-5.49,3.69H446.87a4.11,4.11,0,0,1-4.1-4.1v-15.5C442.76,217.43,444.85,216.16,446.49,214.61Z"/><rect class="cls-21" x="449.96" y="208.68" width="58.35" height="23.7" rx="4.1" ry="4.1"/><circle class="cls-22" cx="466.8" cy="219.99" r="4.5"/><circle class="cls-22" cx="480" cy="219.99" r="4.5"/><circle class="cls-22" cx="493.05" cy="219.99" r="4.5"/><rect class="cls-2" x="83.53" y="93.39" width="67.8" height="43.8" rx="1.65" ry="1.65"/><path class="cls-23" d="M88.83,93.39h3.29l-1.36,1.36a1.2,1.2,0,0,1-1.7,0h0a1.2,1.2,0,0,1-.24-1.36Zm40.11,18.81L149.69,133a1.2,1.2,0,0,1,0,1.7h0a1.2,1.2,0,0,1-1.7,0L127.25,113.9l1.7-1.7Zm-21.28,1.65L86.87,134.65a1.2,1.2,0,0,1-1.7,0h0a1.2,1.2,0,0,1,0-1.7L106,112.16l1.7,1.7ZM95.5,93.39l-3,3a1.2,1.2,0,0,0,0,1.7h0a1.2,1.2,0,0,0,1.7,0l4.74-4.74Zm6.77,0h3.39l-8.11,8.11a1.2,1.2,0,0,1-1.7,0h0a1.2,1.2,0,0,1,0-1.7l6.41-6.41Zm6.77,0h3.39l-11.49,11.49a1.2,1.2,0,0,1-1.7,0h0a1.2,1.2,0,0,1,0-1.7L109,93.39Zm6.77,0-13.16,13.16a1.2,1.2,0,0,0,0,1.7h0a1.2,1.2,0,0,0,1.7,0L119.2,93.39Zm6.77,0L106,109.93a1.2,1.2,0,0,0,0,1.7h0a1.2,1.2,0,0,0,1.7,0L126,93.39Zm6.77,0L109.43,113.3a1.2,1.2,0,0,0,0,1.7h0a1.2,1.2,0,0,0,1.7,0l21.61-21.61Zm6.77,0-23.29,23.29a1.2,1.2,0,0,0,0,1.7h0a1.2,1.2,0,0,0,1.7,0l25-25Zm6.77,0-26.66,26.66a1.2,1.2,0,0,0,0,1.7h0a1.2,1.2,0,0,0,1.7,0l28.36-28.36Z"/><path class="cls-19" d="M143.91,112a14,14,0,1,0-14-14A14.05,14.05,0,0,0,143.91,112Z"/><text class="cls-24" transform="translate(139.93 104.57)">5</text><rect class="cls-25" x="261.07" y="318.63" width="140.4" height="7.76" rx="2.36" ry="2.36"/><path class="cls-26" d="M296.93,230h6a5.88,5.88,0,0,0-5.65,5l-10.22,79.45a4.32,4.32,0,0,0,4.36,5h-6a4.32,4.32,0,0,1-4.36-5L291.28,235A5.88,5.88,0,0,1,296.93,230Z"/><path class="cls-19" d="M302.4,230H417.2a4.32,4.32,0,0,1,4.36,5l-10.22,79.45a5.88,5.88,0,0,1-5.65,5H290.89a4.32,4.32,0,0,1-4.36-5L296.75,235A5.88,5.88,0,0,1,302.4,230Z"/><path class="cls-23" d="M354,286.14a11.4,11.4,0,1,0-11.4-11.4A11.42,11.42,0,0,0,354,286.14Z"/><polyline class="cls-27" points="240.97 135.34 243.12 141.7 239.93 141.28"/><path class="cls-27" d="M246.05,150.14a6.64,6.64,0,0,1-7.78-.3"/><ellipse class="cls-2" cx="249.18" cy="137.16" rx="1.21" ry="2.46" transform="translate(-23.6 56.58) rotate(-12.37)"/><ellipse class="cls-2" cx="231.75" cy="138.14" rx="1.21" ry="2.46" transform="translate(-24.22 52.87) rotate(-12.37)"/><path class="cls-28" d="M236.6,130.59c-2.69-1.83-6.26-1.51-10,.44"/><path class="cls-28" d="M254.43,129.68c-2.69-1.83-6.26-1.51-10,.44"/><path class="cls-19" d="M297,115.68c.06,10.15,5.52,12,10.63,12.11-9.18,1.85-10,3.35-10.88,13.56-.2-7.49-1.2-12.83-11.45-14.5C287.27,126.88,297.54,129.54,297,115.68Z"/><path class="cls-29" d="M329.94,136.88c0,7.43,4,8.75,7.78,8.87-6.72,1.35-7.33,2.45-8,9.92-.15-5.48-.88-9.39-8.38-10.61C322.83,145.09,330.35,147,329.94,136.88Z"/><path class="cls-13" d="M324.22,70.68c.09,15.57,8.47,18.34,16.32,18.59-14.09,2.84-15.37,5.14-16.69,20.8-.31-11.49-1.83-19.68-17.58-22.25C309.33,87.88,325.1,92,324.22,70.68Z"/></g></svg>